<?xml version="1.0" encoding="utf-8"?>
<!-- Generator: Adobe Illustrator 23.0.6, SVG Export Plug-In . SVG Version: 6.00 Build 0)  -->
<svg version="1.1" id="Layer_1" xmlns="http://www.w3.org/2000/svg" xmlns:xlink="http://www.w3.org/1999/xlink" x="0px" y="0px"
	 viewBox="0 0 733 667" style="enable-background:new 0 0 733 667;" xml:space="preserve">
<style type="text/css">
	.st0{fill:#B2E5F0;}
</style>
<path class="st0" d="M372.9,54c-16.1,0.6-73.4,2.6-103.5,15.4c-30.1,12.8-70,36.1-80.6,40.4c-10.7,4.3-42.5-35.3-22.1-49.3
	c25.6-17.7,46.9-32.8,104.7-47c42-10.3,77.8-15,101.6-13.2c23.8,1.9,67.6-0.4,137.4,28.1c58,23.7,62.2,30,75.3,43.5
	c8.1,8.4-12.5,45.7-28.7,38.2C528.4,97,483.7,69,453.7,64.3C423.8,59.6,394.8,53.2,372.9,54z"/>
<g>
	<g>
		<path class="st0" d="M352.1,414.2c36,69.8,55.4-9.4,71.9-40.5c16.5-31.1,29.1-76.4,48.4-104.7c19.3-28.3,22.8-37.7,29.2-63.3
			c6.4-25.6,32.3-64.9,32.3-64.9c13.9-23.1-5.3-30.2-15-35.5c-9.7-5.3-52-23.3-88.1-30.9c-36.1-7.5-66.7-4.6-102.8-2.6
			c-51,2.8-124.4,46.4-121,52c3.4,5.7,10.8,7.5,21.8,41.5c11.1,34,32.8,66,60.4,113.2C316.9,325.6,316.2,344.4,352.1,414.2z
			 M438.3,268.7c-7.1,0-12.9-5.8-12.9-12.9c0-7.1,5.8-12.9,12.9-12.9c7.1,0,12.9,5.8,12.9,12.9C451.2,262.9,445.4,268.7,438.3,268.7
			z M451.2,122.7c18,0,32.6,14.6,32.6,32.6c0,18-14.6,32.6-32.6,32.6c-18,0-32.6-14.6-32.6-32.6
			C418.5,137.3,433.1,122.7,451.2,122.7z M405.3,311.9c0,15-12.2,27.2-27.2,27.2c-15,0-27.2-12.2-27.2-27.2
			c0-15,12.2-27.2,27.2-27.2C393.1,284.7,405.3,296.9,405.3,311.9z M305.5,109.8c7.1,0,12.9,5.8,12.9,12.9c0,7.1-5.8,12.9-12.9,12.9
			c-7.1,0-12.9-5.8-12.9-12.9C292.6,115.6,298.4,109.8,305.5,109.8z M323.8,169.6c19.8,0,35.9,16.1,35.9,35.9
			c0,19.8-16.1,35.9-35.9,35.9c-19.8,0-35.9-16.1-35.9-35.9C287.9,185.7,303.9,169.6,323.8,169.6z"/>
		<path class="st0" d="M437.4,489c-3-10.1-12.1-17.5-20.4-22.4C331.3,547.7,259.8,615.8,252.4,624c-19.5,21.4,7.4,45.5,29.1,42.8
			c21.7-2.7,123.6-132,151.2-153.6c0.4-0.3,0.8-0.6,1.2-0.9C438.3,503.8,439.4,496,437.4,489z"/>
		<path class="st0" d="M427.9,456.2c9.7,6.4,19.6,15.7,23.4,28.6c1.9,6.2,2.1,12.7,0.8,19.4c20.1-3.9,36.7,8,36.7,8
			S625,380,672.5,311.2C719.9,242.3,733,168,733,168S565.3,326,427.9,456.2z"/>
	</g>
	<g>
		<path class="st0" d="M170.8,363.3c0,0,10.2,9,70.3,64.1c95.7,87.9,221.6,221.7,243.6,234.9c22,13.2,33.9-5.6,33.9-5.6L120.6,296.7
			c0,0-5,6.6-14-1.5c-8.9-8.1-93.7-82-90.8-75.5c2.6,5.9,77.4,76.5,87.2,85.5c7,6.3-3.4,19.2-10.5,13.7
			C63.5,296.1,3.3,234.7,0,237.1c-1.7,1.3,58.7,65.1,83.8,91.6C118.1,364.9,146.6,371.5,170.8,363.3z"/>
		<path class="st0" d="M191.9,340c0,0,9.9,9.2,70.8,63.5c97,86.5,242.7,198.4,258.1,218.9c15.3,20.5-2.2,34.3-2.2,34.3L120.6,296.7
			c0,0,6-5.7-2.9-13.7c-8.9-8.1-91-85-84.2-82.8c6.1,2,83.9,69.3,93.8,78.2c7,6.3,18.8-5.3,12.6-11.8
			c-25.5-26.7-92.6-80.4-90.5-83.9c1.1-1.8,70.7,51.9,99.5,74.2C188.2,287.3,197.7,315.1,191.9,340z"/>
	</g>
</g>
</svg>
